# xmcd
# Track frame offsets:
# 150
# 14172
# 28764
# 44390
# 64753
# 81882
# 101347
# 120785
# 138441
# 155455
# 187324
#
# Disc length: 2708 seconds
# Revision: 0
# Processed by: cddbd v1.5.2PL0 Copyright (c) Steve Scherf et al.
# Submitted via: VisiTrax 2.11.2.271 - For more info visit www.synapsa.com
#
DISCID=910a920b
DTITLE=Woodward, Craig - Woodward, Craig and The Lonely Dogs
DYEAR=2012
DGENRE=
TTITLE0=You Couldn't Tell Me
TTITLE1=Bondi Smile
TTITLE2=I Wanna Kiss You
TTITLE3=Chasing Strangers
TTITLE4=Save My Life
TTITLE5=Never Be the Same
TTITLE6=Breeze
TTITLE7=Confession
TTITLE8=Open My Eyes
TTITLE9=Black Angel
TTITLE10=Landslide
EXTD=
EXTT0=
EXTT1=
EXTT2=
EXTT3=
EXTT4=
EXTT5=
EXTT6=
EXTT7=
EXTT8=
EXTT9=
EXTT10=
PLAYORDER=
